<svg xmlns="http://www.w3.org/2000/svg" xmlns:xlink="http://www.w3.org/1999/xlink" version="1.1" x="0px" y="0px" viewBox="0 0 90 109.61124999999998" style="enable-background:new 0 0 90 87.689;" xml:space="preserve"><g><g><path d="M68.486,44.413c-7.476,0-14.057,3.817-17.913,9.607c-0.348-0.12-0.697-0.247-1.042-0.361    c-0.544-0.177-3.967-1.721-1.828-8.226h-0.029c5.578-5.745,9.842-14.996,9.842-24.1C57.516,7.338,48.207,0,37.39,0    c-10.824,0-20.08,7.337-20.08,21.333c0,9.139,4.24,18.427,9.85,24.16c2.188,5.736-1.724,7.864-2.543,8.166    C13.292,57.756,0,65.225,0,72.599c0,1.989,0,0.782,0,2.759c0,10.047,19.474,12.332,37.497,12.332    c8.001,0,16.227-0.455,22.916-1.829c-0.002,0-0.004-0.001-0.004-0.001c2.494,1.013,5.219,1.582,8.078,1.582    C80.366,87.441,90,77.808,90,65.928C90,54.047,80.366,44.413,68.486,44.413z M37.497,85.985c-23.082,0-35.792-3.774-35.792-10.628    v-2.759c0-6.072,12.178-13.243,23.502-17.341c0.255-0.092,2.525-0.989,3.681-3.532c0.892-1.964,0.847-4.264-0.135-6.84    c-0.083-0.218-0.211-0.417-0.375-0.584c-5.688-5.813-9.364-14.829-9.364-22.968c0-14.488,9.898-19.629,18.375-19.629    c9.168,0,18.422,6.069,18.422,19.629c0,8.063-3.675,17.057-9.361,22.914c-0.25,0.256-0.4,0.579-0.453,0.919    c-0.945,3.014-0.929,5.515,0.046,7.436c0.771,1.518,2.035,2.379,2.951,2.676c0.223,0.072,0.447,0.156,0.672,0.232    c0.172-0.31,0.364-0.605,0.551-0.905c-2.045,3.292-3.246,7.163-3.246,11.323c0,7.994,4.371,14.955,10.845,18.664    C52.387,85.504,45.601,85.985,37.497,85.985z M68.486,85.737c-10.924,0-19.811-8.887-19.811-19.81    c0-10.924,8.887-19.811,19.811-19.811s19.81,8.887,19.81,19.811C88.296,76.851,79.41,85.737,68.486,85.737z"/><path d="M80.357,61.176h-7.189v-7.131c0-0.941-0.763-1.703-1.705-1.703h-5.99c-0.942,0-1.705,0.762-1.705,1.703v7.131h-7.189    c-0.942,0-1.705,0.763-1.705,1.705v6.107c0,0.941,0.763,1.703,1.705,1.703h7.189v7.135c0,0.941,0.763,1.703,1.705,1.703h5.99    c0.942,0,1.705-0.762,1.705-1.703v-7.135h7.189c0.942,0,1.705-0.762,1.705-1.703v-6.107C82.063,61.938,81.3,61.176,80.357,61.176z     M80.357,68.988h-8.895v8.838h-5.99v-8.838h-8.895v-6.107h8.895v-8.836h5.99v8.836h8.895V68.988z"/></g></g></svg>