<?xml version="1.0" encoding="UTF-8" standalone="no"?>
<svg width="66px" height="58px" viewBox="0 0 66 58" version="1.1" xmlns="http://www.w3.org/2000/svg" xmlns:xlink="http://www.w3.org/1999/xlink" xmlns:sketch="http://www.bohemiancoding.com/sketch/ns">
    <!-- Generator: Sketch 3.4.2 (15855) - http://www.bohemiancoding.com/sketch -->
    <title>doc</title>
    <desc>Created with Sketch.</desc>
    <defs></defs>
    <g id="Page-1" stroke="none" stroke-width="1" fill="none" fill-rule="evenodd" sketch:type="MSPage">
        <g id="doc" sketch:type="MSLayerGroup" fill="#000000">
            <g id="Group" sketch:type="MSShapeGroup">
                <path d="M54.2,53.9 L11.8,53.9 C5.7,53.9 0.8,49 0.8,42.9 L0.8,20.2 C0.8,14.1 5.7,9.2 11.8,9.2 L54.1,9.2 C60.2,9.2 65.1,14.1 65.1,20.2 L65.1,42.9 C65.2,48.9 60.3,53.9 54.2,53.9 L54.2,53.9 Z M11.8,11.2 C6.8,11.2 2.8,15.2 2.8,20.2 L2.8,42.9 C2.8,47.9 6.8,51.9 11.8,51.9 L54.1,51.9 C59.1,51.9 63.1,47.9 63.1,42.9 L63.1,20.2 C63.1,15.2 59.1,11.2 54.1,11.2 L11.8,11.2 L11.8,11.2 Z" id="Shape"></path>
                <g transform="translate(10.000000, 55.000000)" id="Shape">
                    <path d="M10.6,2.5 L1.9,2.5 C1.3,2.5 0.9,2.1 0.9,1.5 C0.9,0.9 1.3,0.5 1.9,0.5 L10.6,0.5 C11.2,0.5 11.6,0.9 11.6,1.5 C11.6,2.1 11.2,2.5 10.6,2.5 L10.6,2.5 Z"></path>
                    <path d="M44.1,2.5 L35.4,2.5 C34.8,2.5 34.4,2.1 34.4,1.5 C34.4,0.9 34.8,0.5 35.4,0.5 L44.1,0.5 C44.7,0.5 45.1,0.9 45.1,1.5 C45.1,2.1 44.7,2.5 44.1,2.5 L44.1,2.5 Z"></path>
                </g>
                <g transform="translate(21.000000, 20.000000)" id="Shape">
                    <path d="M12,22.8 C5.8,22.8 0.7,17.7 0.7,11.5 C0.7,5.3 5.8,0.3 12,0.3 C18.2,0.3 23.3,5.4 23.3,11.6 C23.3,17.8 18.2,22.8 12,22.8 L12,22.8 Z M12,2.3 C6.9,2.3 2.7,6.5 2.7,11.6 C2.7,16.7 6.9,20.9 12,20.9 C17.1,20.9 21.3,16.7 21.3,11.6 C21.3,6.4 17.1,2.3 12,2.3 L12,2.3 Z"></path>
                    <g transform="translate(6.000000, 6.000000)">
                        <path d="M6,10.9 C5.4,10.9 5,10.5 5,9.9 L5,1.1 C5,0.5 5.4,0.1 6,0.1 C6.6,0.1 7,0.5 7,1.1 L7,9.9 C7,10.5 6.6,10.9 6,10.9 L6,10.9 Z"></path>
                        <path d="M10.4,6.5 L1.6,6.5 C1,6.5 0.6,6.1 0.6,5.5 C0.6,4.9 1,4.5 1.6,4.5 L10.4,4.5 C11,4.5 11.4,4.9 11.4,5.5 C11.4,6.1 11,6.5 10.4,6.5 L10.4,6.5 Z"></path>
                    </g>
                </g>
                <g transform="translate(22.000000, 0.000000)" id="Shape">
                    <path d="M20.3,6 L2.4,6 C1.8,6 1.4,5.6 1.4,5 C1.4,4.4 1.8,4 2.4,4 L20.3,4 C20.9,4 21.3,4.4 21.3,5 C21.3,5.6 20.8,6 20.3,6 L20.3,6 Z"></path>
                    <path d="M20.5,10.2 C19.9,10.2 19.5,9.8 19.5,9.2 L19.5,5 C19.5,3.3 18.2,2 16.5,2 L5.5,2 C3.8,2 2.5,3.3 2.5,5 L2.5,9.2 C2.5,9.8 2.1,10.2 1.5,10.2 C0.9,10.2 0.5,9.8 0.5,9.2 L0.5,5 C0.5,2.2 2.7,0 5.5,0 L16.5,0 C19.3,0 21.5,2.2 21.5,5 L21.5,9.2 C21.5,9.7 21.1,10.2 20.5,10.2 L20.5,10.2 Z"></path>
                </g>
            </g>
        </g>
    </g>
</svg>