<svg xmlns="http://www.w3.org/2000/svg" xmlns:xlink="http://www.w3.org/1999/xlink" version="1.1" x="0px" y="0px" viewBox="0 0 24 30" style="enable-background:new 0 0 24 24;" xml:space="preserve"><g><g><path d="M21,23.5H10c-1.378,0-2.5-1.122-2.5-2.5v-5c0-0.276,0.224-0.5,0.5-0.5s0.5,0.224,0.5,0.5v5c0,0.827,0.673,1.5,1.5,1.5h11    c0.827,0,1.5-0.673,1.5-1.5V3c0-0.827-0.673-1.5-1.5-1.5H10C9.173,1.5,8.5,2.173,8.5,3v5c0,0.276-0.224,0.5-0.5,0.5    S7.5,8.276,7.5,8V3c0-1.378,1.122-2.5,2.5-2.5h11c1.378,0,2.5,1.122,2.5,2.5v18C23.5,22.378,22.378,23.5,21,23.5z"/></g><g><path d="M14,12.5H1c-0.276,0-0.5-0.224-0.5-0.5s0.224-0.5,0.5-0.5h13c0.276,0,0.5,0.224,0.5,0.5S14.276,12.5,14,12.5z"/></g><g><path d="M10,16.5c-0.128,0-0.256-0.049-0.354-0.146c-0.195-0.195-0.195-0.512,0-0.707L13.293,12L9.646,8.354    c-0.195-0.195-0.195-0.512,0-0.707s0.512-0.195,0.707,0l4,4c0.195,0.195,0.195,0.512,0,0.707l-4,4    C10.256,16.451,10.128,16.5,10,16.5z"/></g></g></svg>