<?xml version="1.0" encoding="UTF-8" standalone="no"?>
<svg width="88px" height="88px" viewBox="0 0 88 88" version="1.1" xmlns="http://www.w3.org/2000/svg" xmlns:xlink="http://www.w3.org/1999/xlink" xmlns:sketch="http://www.bohemiancoding.com/sketch/ns">
    <!-- Generator: Sketch 3.4.2 (15855) - http://www.bohemiancoding.com/sketch -->
    <title>noun_382450_cc</title>
    <desc>Created with Sketch.</desc>
    <defs></defs>
    <g id="Page-1" stroke="none" stroke-width="1" fill="none" fill-rule="evenodd" sketch:type="MSPage">
        <g id="noun_382450_cc" sketch:type="MSLayerGroup" fill="#000000">
            <g id="Group" sketch:type="MSShapeGroup">
                <path d="M40.382,27.223 L40.382,14.08 L27.245,14.08 L27.245,27.223 L14.099,27.223 L14.099,40.365 L27.245,40.359 L27.245,53.519 L40.382,53.519 L40.382,40.359 L53.529,40.36 L53.528,27.223 L40.382,27.223 L40.382,27.223 Z M86.265,76.839 L70.085,60.657 C68.982,59.554 67.179,59.553 66.076,60.657 L65.848,60.885 L59.412,54.446 C63.976,48.795 66.719,41.612 66.719,33.799 C66.719,15.654 51.957,0.893 33.816,0.893 C15.67,0.893 0.907,15.655 0.907,33.799 C0.907,51.945 15.671,66.71 33.817,66.71 C41.631,66.71 48.813,63.966 54.463,59.397 L60.898,65.835 L60.643,66.09 C59.54,67.194 59.54,68.996 60.643,70.1 L76.823,86.282 C77.926,87.386 79.729,87.386 80.832,86.282 L86.265,80.848 C87.368,79.745 87.368,77.94 86.265,76.839 L86.265,76.839 Z M33.817,62.709 C17.876,62.709 4.907,49.739 4.907,33.798 C4.907,17.859 17.876,4.892 33.816,4.892 C49.753,4.892 62.719,17.859 62.719,33.798 C62.72,49.739 49.754,62.709 33.817,62.709 L33.817,62.709 Z" id="Shape"></path>
            </g>
        </g>
    </g>
</svg>