<?xml version="1.0" encoding="UTF-8" standalone="no"?>
<svg width="47px" height="46px" viewBox="0 0 47 46" version="1.1" xmlns="http://www.w3.org/2000/svg" xmlns:xlink="http://www.w3.org/1999/xlink" xmlns:sketch="http://www.bohemiancoding.com/sketch/ns">
    <!-- Generator: Sketch 3.4.4 (17249) - http://www.bohemiancoding.com/sketch -->
    <title>Icone Encerra - Não</title>
    <desc>Created with Sketch.</desc>
    <defs></defs>
    <g id="Page-1" stroke="none" stroke-width="1" fill="none" fill-rule="evenodd" sketch:type="MSPage">
        <g id="iPhone-6" sketch:type="MSArtboardGroup" transform="translate(-142.000000, -379.000000)" fill="#FFFFFF">
            <g id="Icone-Encerra---Não" sketch:type="MSLayerGroup" transform="translate(142.000000, 379.000000)">
                <g id="Group" sketch:type="MSShapeGroup">
                    <path d="M44.6336522,46 C44.1590543,46 43.6839457,45.8205495 43.3217391,45.4621538 L1.05392391,3.63956044 C0.329,2.92327473 0.329,1.75962637 1.05392391,1.04334066 C1.77884783,0.326043956 2.95333696,0.326043956 3.67826087,1.04334066 L45.9460761,42.8659341 C46.671,43.5822198 46.671,44.7458681 45.9460761,45.4621538 C45.5833587,45.8210549 45.10825,46 44.6336522,46 L44.6336522,46 Z" id="Shape"></path>
                    <path d="M2.36634783,46 C1.89175,46 1.4166413,45.8205495 1.05443478,45.4621538 C0.32951087,44.7458681 0.32951087,43.5822198 1.05443478,42.8659341 L43.3217391,1.04283516 C44.046663,0.325538462 45.2211522,0.325538462 45.9460761,1.04283516 C46.671,1.75912088 46.671,2.92276923 45.9460761,3.63905495 L3.67826087,45.4621538 C3.31605435,45.8210549 2.84094565,46 2.36634783,46 L2.36634783,46 Z" id="Shape"></path>
                </g>
            </g>
        </g>
    </g>
</svg>