<?xml version="1.0" encoding="UTF-8" standalone="no"?>
<svg width="90px" height="74px" viewBox="0 0 90 74" version="1.1" xmlns="http://www.w3.org/2000/svg" xmlns:xlink="http://www.w3.org/1999/xlink" xmlns:sketch="http://www.bohemiancoding.com/sketch/ns">
    <!-- Generator: Sketch 3.4.4 (17249) - http://www.bohemiancoding.com/sketch -->
    <title>Shape + Shape</title>
    <desc>Created with Sketch.</desc>
    <defs></defs>
    <g id="Page-1" stroke="none" stroke-width="1" fill="none" fill-rule="evenodd" sketch:type="MSPage">
        <g id="Artboard-1" sketch:type="MSArtboardGroup" transform="translate(-195.000000, -507.000000)" fill="#FFFFFF">
            <g id="Shape-+-Shape" sketch:type="MSLayerGroup" transform="translate(195.000000, 507.000000)">
                <path d="M54.4,28.0542486 L37.3,28.0542486 L40.9,10.1542486 C41.4,7.65424859 41,5.15424859 39.7,3.05424859 L39.7,3.05424859 C38.2,0.554248594 34.8,0.0542485937 32.7,1.95424859 L2.5,26.3542486 C1.3,27.4542486 0.7,28.9542486 0.7,30.4542486 L0.7,63.5542486 C0.7,65.9542486 2.2,68.0542486 4.4,68.8542486 L17.3,72.2542486 C20.4,73.3542486 23.7,73.8542486 27,73.8542486 L45,73.8542486 C51.6,73.8542486 57.5,69.6542486 59.7,63.3542486 L66.6,43.3542486 C66.9,42.4542486 67,41.4542486 67,40.4542486 L67,40.4542486 C67,33.6542486 61.4,28.0542486 54.4,28.0542486 L54.4,28.0542486 Z" id="Shape" sketch:type="MSShapeGroup" transform="translate(33.850000, 37.327124) scale(-1, -1) translate(-33.850000, -37.327124) "></path>
                <path d="M87.2,7 L72.8,7 C71.3,7 70,8.2 70,9.8 L70,43.8 C70,45.3 71.2,46.5 72.7,46.6 L87.2,46.6 C88.7,46.6 90,45.4 90,43.8 L90,9.8 C90,8.2 88.7,7 87.2,7 L87.2,7 Z" id="Shape" sketch:type="MSShapeGroup" transform="translate(80.000000, 26.800000) scale(-1, -1) translate(-80.000000, -26.800000) "></path>
            </g>
        </g>
    </g>
</svg>