<?xml version="1.0" encoding="UTF-8" standalone="no"?>
<svg width="90px" height="74px" viewBox="0 0 90 74" version="1.1" xmlns="http://www.w3.org/2000/svg" xmlns:xlink="http://www.w3.org/1999/xlink" xmlns:sketch="http://www.bohemiancoding.com/sketch/ns">
    <!-- Generator: Sketch 3.4.4 (17249) - http://www.bohemiancoding.com/sketch -->
    <title>noun_343589_cc</title>
    <desc>Created with Sketch.</desc>
    <defs></defs>
    <g id="Page-1" stroke="none" stroke-width="1" fill="none" fill-rule="evenodd" sketch:type="MSPage">
        <g id="noun_343589_cc" sketch:type="MSLayerGroup" fill="#FFFFFF">
            <g id="Group" sketch:type="MSShapeGroup">
                <g id="Shape">
                    <path d="M76.7,27.4 L59.6,27.4 L63.2,9.5 C63.7,7 63.3,4.5 62,2.4 L62,2.4 C60.5,-0.1 57.1,-0.6 55,1.3 L24.8,25.7 C23.6,26.8 23,28.3 23,29.8 L23,62.9 C23,65.3 24.5,67.4 26.7,68.2 L39.6,71.6 C42.7,72.7 46,73.2 49.3,73.2 L67.3,73.2 C73.9,73.2 79.8,69 82,62.7 L88.9,42.7 C89.2,41.8 89.3,40.8 89.3,39.8 L89.3,39.8 C89.3,33 83.7,27.4 76.7,27.4 L76.7,27.4 Z"></path>
                    <path d="M17.2,27.4 L2.8,27.4 C1.3,27.4 0,28.6 0,30.2 L0,64.2 C0,65.7 1.2,66.9 2.7,67 L17.2,67 C18.7,67 20,65.8 20,64.2 L20,30.2 C20,28.6 18.7,27.4 17.2,27.4 L17.2,27.4 Z"></path>
                </g>
            </g>
        </g>
    </g>
</svg>