<svg id="Layer_1" data-name="Layer 1" xmlns="http://www.w3.org/2000/svg" viewBox="0 0 60.54 74"><defs><style>.cls-1{fill:#fff;}</style></defs><title>thumb-down</title><g id="Page-1"><g id="Artboard-1"><g id="Shape-_-Shape" data-name="Shape-+-Shape"><path id="Shape" class="cls-1" d="M52.68,10.44A10.36,10.36,0,0,0,42.41,0h0A7.66,7.66,0,0,0,40,.33L23.43,6a12.93,12.93,0,0,0-8.7,12.18V33.15a24.06,24.06,0,0,0,1.33,8l2.82,10.69a4.67,4.67,0,0,0,4.39,3.07H50.7a4.59,4.59,0,0,0,3.4-1.49l20.22-25a3.81,3.81,0,0,0-.91-5.8h0a8.06,8.06,0,0,0-5.88-1l-14.83,3V10.44Z" transform="translate(-14.73 0)"/><path id="Shape-2" data-name="Shape" class="cls-1" d="M52.68,59.75a2.32,2.32,0,0,0-2.32-2.32H22.19a2.32,2.32,0,0,0-2.32,2.32v12A2.36,2.36,0,0,0,22.19,74H50.36a2.32,2.32,0,0,0,2.32-2.32V59.75Z" transform="translate(-14.73 0)"/></g></g></g></svg>