<?xml version="1.0" encoding="UTF-8" standalone="no"?>
<svg width="80px" height="70px" viewBox="0 0 80 70" version="1.1" xmlns="http://www.w3.org/2000/svg" xmlns:xlink="http://www.w3.org/1999/xlink">
    <!-- Generator: Sketch 41.2 (35397) - http://www.bohemiancoding.com/sketch -->
    <title>noun_523577_cc</title>
    <desc>Created with Sketch.</desc>
    <defs></defs>
    <g id="Page-1" stroke="none" stroke-width="1" fill="none" fill-rule="evenodd">
        <g id="noun_523577_cc" fill="#01A1D9">
            <g id="Group">
                <path d="M61.7165714,69.453 C57.2834286,69.453 41.3142857,68.121 21.7257143,50.988 C2.16342857,33.859 0.632,19.879 0.632,16.004 C0.632,9.649 9.99314286,0.578 12.3862857,0.547 L17.6982857,0.547 C18.4125714,0.547 19.0685714,0.93 19.3497143,1.512 L27.1931429,17.7 C27.5051429,18.36 27.2605714,19.134 26.5988571,19.563 C19.224,24.418 16.7771429,25.915 16.7325714,28.36 C16.7325714,33.63 41.5542857,55.356 47.536,55.356 C50.3748571,55.333 52.2594286,53.219 57.8171429,46.747 C58.3085714,46.173 59.1874286,45.954 59.9371429,46.239 L78.2765714,53.079 C78.9325714,53.321 79.3657143,53.895 79.3657143,54.524 L79.3657143,59.18 C79.3508571,61.266 68.9794286,69.453 61.7165714,69.453 Z" id="Shape"></path>
            </g>
        </g>
    </g>
</svg>