<?xml version="1.0" encoding="UTF-8" standalone="no"?>
<svg width="90px" height="79px" viewBox="0 0 90 79" version="1.1" xmlns="http://www.w3.org/2000/svg" xmlns:xlink="http://www.w3.org/1999/xlink">
    <!-- Generator: Sketch 41.2 (35397) - http://www.bohemiancoding.com/sketch -->
    <title>noun_688358_cc</title>
    <desc>Created with Sketch.</desc>
    <defs></defs>
    <g id="Page-1" stroke="none" stroke-width="1" fill="none" fill-rule="evenodd">
        <g id="noun_688358_cc" fill="#01A1D9">
            <g id="Group">
                <path d="M6.94565217,26.7428571 C27.5869565,2.62857143 62.5108696,2.62857143 83.1521739,26.7428571 C83.8369565,27.5428571 84.7173913,27.8857143 85.5978261,27.8857143 C86.4782609,27.8857143 87.3586957,27.5428571 88.0434783,26.7428571 C89.4130435,25.1428571 89.4130435,22.6285714 88.0434783,21.0285714 C64.6630435,-6.28571429 25.3369565,-6.28571429 1.95652174,21.0285714 C0.586956522,22.6285714 0.586956522,25.1428571 1.95652174,26.7428571 C3.32608696,28.3428571 5.57608696,28.3428571 6.94565217,26.7428571 Z" id="Shape"></path>
                <path d="M60.9456522,56.6857143 C61.826087,56.6857143 62.7065217,56.3428571 63.3913043,55.5428571 C64.7608696,53.9428571 64.7608696,51.4285714 63.3913043,49.8285714 C53.4130435,38.1714286 36.4891304,38.1714286 26.5108696,49.8285714 C25.1413043,51.4285714 25.1413043,53.9428571 26.5108696,55.5428571 C27.8804348,57.1428571 30.0326087,57.1428571 31.4021739,55.5428571 C38.6413043,47.0857143 51.2608696,47.0857143 58.4021739,55.5428571 C59.1847826,56.2285714 60.0652174,56.6857143 60.9456522,56.6857143 Z" id="Shape"></path>
                <path d="M73.2717391,42.2857143 C74.1521739,42.2857143 75.0326087,41.9428571 75.7173913,41.1428571 C77.0869565,39.5428571 77.0869565,37.0285714 75.7173913,35.4285714 C58.5,15.3142857 31.5,15.3142857 14.2826087,35.4285714 C12.9130435,37.0285714 12.9130435,39.5428571 14.2826087,41.1428571 C15.6521739,42.7428571 17.8043478,42.7428571 19.173913,41.1428571 C33.8478261,24 56.0543478,24 70.826087,41.1428571 C71.5108696,41.8285714 72.3913043,42.2857143 73.2717391,42.2857143 Z" id="Shape"></path>
                <ellipse id="Oval" cx="45" cy="69.8285714" rx="7.82608696" ry="9.14285714"></ellipse>
            </g>
        </g>
    </g>
</svg>